<?xml version="1.0" encoding="utf-8" standalone="no"?>
<!DOCTYPE svg PUBLIC "-//W3C//DTD SVG 1.1//EN"
  "http://www.w3.org/Graphics/SVG/1.1/DTD/svg11.dtd">
<svg xmlns:xlink="http://www.w3.org/1999/xlink" width="720pt" height="432pt" viewBox="0 0 720 432" xmlns="http://www.w3.org/2000/svg" version="1.1">
 <metadata>
  <rdf:RDF xmlns:dc="http://purl.org/dc/elements/1.1/" xmlns:cc="http://creativecommons.org/ns#" xmlns:rdf="http://www.w3.org/1999/02/22-rdf-syntax-ns#">
   <cc:Work>
    <dc:type rdf:resource="http://purl.org/dc/dcmitype/StillImage"/>
    <dc:date>2023-12-10T19:00:04.959512</dc:date>
    <dc:format>image/svg+xml</dc:format>
    <dc:creator>
     <cc:Agent>
      <dc:title>Matplotlib v3.8.0, https://matplotlib.org/</dc:title>
     </cc:Agent>
    </dc:creator>
   </cc:Work>
  </rdf:RDF>
 </metadata>
 <defs>
  <style type="text/css">*{stroke-linejoin: round; stroke-linecap: butt}</style>
 </defs>
 <g id="figure_1">
  <g id="patch_1">
   <path d="M 0 432 
L 720 432 
L 720 0 
L 0 0 
z
" style="fill: #ffffff"/>
  </g>
  <g id="axes_1">
   <g id="patch_2">
    <path d="M 90 384.48 
L 648 384.48 
L 648 51.84 
L 90 51.84 
z
" style="fill: #ffffff"/>
   </g>
   <g id="PolyCollection_1">
    <defs>
     <path id="mbd535ac8af" d="M 183.789482 -62.64 
L 182.210518 -62.64 
L 181.933352 -64.094567 
L 181.58095 -65.549135 
L 181.140724 -67.003702 
L 180.600395 -68.45827 
L 179.948773 -69.912837 
L 179.176609 -71.367405 
L 178.277458 -72.821972 
L 177.248461 -74.27654 
L 176.09094 -75.731107 
L 174.810729 -77.185675 
L 173.418156 -78.640242 
L 171.927645 -80.094809 
L 170.356933 -81.549377 
L 168.725964 -83.003944 
L 167.055548 -84.458512 
L 165.365923 -85.913079 
L 163.67536 -87.367647 
L 161.998964 -88.822214 
L 160.347779 -90.276782 
L 158.728263 -91.731349 
L 157.142172 -93.185916 
L 155.586793 -94.640484 
L 154.055468 -96.095051 
L 152.538295 -97.549619 
L 151.022907 -99.004186 
L 149.495244 -100.458754 
L 147.940253 -101.913321 
L 146.342513 -103.367889 
L 144.686795 -104.822456 
L 142.958619 -106.277024 
L 141.144858 -107.731591 
L 139.234454 -109.186158 
L 137.219295 -110.640726 
L 135.095249 -112.095293 
L 132.863354 -113.549861 
L 130.531083 -115.004428 
L 128.113591 -116.458996 
L 125.63481 -117.913563 
L 123.12822 -119.368131 
L 120.637121 -120.822698 
L 118.214236 -122.277266 
L 115.920479 -123.731833 
L 113.822823 -125.1864 
L 111.991242 -126.640968 
L 110.494844 -128.095535 
L 109.397416 -129.550103 
L 108.752723 -131.00467 
L 108.6 -132.459238 
L 108.960121 -133.913805 
L 109.832917 -135.368373 
L 111.196041 -136.82294 
L 113.005639 -138.277507 
L 115.198891 -139.732075 
L 117.698269 -141.186642 
L 120.417149 -142.64121 
L 123.266223 -144.095777 
L 126.160055 -145.550345 
L 129.023076 -147.004912 
L 131.794377 -148.45948 
L 134.43081 -149.914047 
L 136.908103 -151.368615 
L 139.219958 -152.823182 
L 141.375367 -154.277749 
L 143.394564 -155.732317 
L 145.304234 -157.186884 
L 147.132623 -158.641452 
L 148.905195 -160.096019 
L 150.641342 -161.550587 
L 152.352484 -163.005154 
L 154.041654 -164.459722 
L 155.704468 -165.914289 
L 157.33115 -167.368857 
L 158.909204 -168.823424 
L 160.426213 -170.277991 
L 161.87233 -171.732559 
L 163.242087 -173.187126 
L 164.535295 -174.641694 
L 165.756987 -176.096261 
L 166.916498 -177.550829 
L 168.02591 -179.005396 
L 169.098154 -180.459964 
L 170.145097 -181.914531 
L 171.175903 -183.369098 
L 172.195881 -184.823666 
L 173.205934 -186.278233 
L 174.20265 -187.732801 
L 175.178926 -189.187368 
L 176.125012 -190.641936 
L 177.02978 -192.096503 
L 177.882027 -193.551071 
L 178.671664 -195.005638 
L 179.390647 -196.460206 
L 180.033592 -197.914773 
L 180.598041 -199.36934 
L 181.084425 -200.823908 
L 181.495752 -202.278475 
L 181.83713 -203.733043 
L 182.115182 -205.18761 
L 182.337452 -206.642178 
L 183.662548 -206.642178 
L 183.662548 -206.642178 
L 183.884818 -205.18761 
L 184.16287 -203.733043 
L 184.504248 -202.278475 
L 184.915575 -200.823908 
L 185.401959 -199.36934 
L 185.966408 -197.914773 
L 186.609353 -196.460206 
L 187.328336 -195.005638 
L 188.117973 -193.551071 
L 188.97022 -192.096503 
L 189.874988 -190.641936 
L 190.821074 -189.187368 
L 191.79735 -187.732801 
L 192.794066 -186.278233 
L 193.804119 -184.823666 
L 194.824097 -183.369098 
L 195.854903 -181.914531 
L 196.901846 -180.459964 
L 197.97409 -179.005396 
L 199.083502 -177.550829 
L 200.243013 -176.096261 
L 201.464705 -174.641694 
L 202.757913 -173.187126 
L 204.12767 -171.732559 
L 205.573787 -170.277991 
L 207.090796 -168.823424 
L 208.66885 -167.368857 
L 210.295532 -165.914289 
L 211.958346 -164.459722 
L 213.647516 -163.005154 
L 215.358658 -161.550587 
L 217.094805 -160.096019 
L 218.867377 -158.641452 
L 220.695766 -157.186884 
L 222.605436 -155.732317 
L 224.624633 -154.277749 
L 226.780042 -152.823182 
L 229.091897 -151.368615 
L 231.56919 -149.914047 
L 234.205623 -148.45948 
L 236.976924 -147.004912 
L 239.839945 -145.550345 
L 242.733777 -144.095777 
L 245.582851 -142.64121 
L 248.301731 -141.186642 
L 250.801109 -139.732075 
L 252.994361 -138.277507 
L 254.803959 -136.82294 
L 256.167083 -135.368373 
L 257.039879 -133.913805 
L 257.4 -132.459238 
L 257.247277 -131.00467 
L 256.602584 -129.550103 
L 255.505156 -128.095535 
L 254.008758 -126.640968 
L 252.177177 -125.1864 
L 250.079521 -123.731833 
L 247.785764 -122.277266 
L 245.362879 -120.822698 
L 242.87178 -119.368131 
L 240.36519 -117.913563 
L 237.886409 -116.458996 
L 235.468917 -115.004428 
L 233.136646 -113.549861 
L 230.904751 -112.095293 
L 228.780705 -110.640726 
L 226.765546 -109.186158 
L 224.855142 -107.731591 
L 223.041381 -106.277024 
L 221.313205 -104.822456 
L 219.657487 -103.367889 
L 218.059747 -101.913321 
L 216.504756 -100.458754 
L 214.977093 -99.004186 
L 213.461705 -97.549619 
L 211.944532 -96.095051 
L 210.413207 -94.640484 
L 208.857828 -93.185916 
L 207.271737 -91.731349 
L 205.652221 -90.276782 
L 204.001036 -88.822214 
L 202.32464 -87.367647 
L 200.634077 -85.913079 
L 198.944452 -84.458512 
L 197.274036 -83.003944 
L 195.643067 -81.549377 
L 194.072355 -80.094809 
L 192.581844 -78.640242 
L 191.189271 -77.185675 
L 189.90906 -75.731107 
L 188.751539 -74.27654 
L 187.722542 -72.821972 
L 186.823391 -71.367405 
L 186.051227 -69.912837 
L 185.399605 -68.45827 
L 184.859276 -67.003702 
L 184.41905 -65.549135 
L 184.066648 -64.094567 
L 183.789482 -62.64 
z
" style="stroke: #484848; stroke-width: 1.25"/>
    </defs>
    <g clip-path="url(#pae5f3a1c46)">
     <use xlink:href="#mbd535ac8af" x="0" y="432" style="fill: #cb3335; stroke: #484848; stroke-width: 1.25"/>
    </g>
   </g>
   <g id="PolyCollection_2">
    <defs>
     <path id="m01e7ab3990" d="M 369.933724 -92.873154 
L 368.066276 -92.873154 
L 367.757452 -94.937691 
L 367.371579 -97.002228 
L 366.898025 -99.066765 
L 366.3273 -101.131302 
L 365.651897 -103.19584 
L 364.867166 -105.260377 
L 363.9721 -107.324914 
L 362.969944 -109.389451 
L 361.868507 -111.453988 
L 360.680058 -113.518526 
L 359.420755 -115.583063 
L 358.109545 -117.6476 
L 356.766569 -119.712137 
L 355.411152 -121.776674 
L 354.05954 -123.841212 
L 352.722583 -125.905749 
L 351.403629 -127.970286 
L 350.096893 -130.034823 
L 348.786569 -132.09936 
L 347.446884 -134.163898 
L 346.043243 -136.228435 
L 344.53447 -138.292972 
L 342.876075 -140.357509 
L 341.024306 -142.422046 
L 338.940668 -144.486584 
L 336.596487 -146.551121 
L 333.977049 -148.615658 
L 331.084869 -150.680195 
L 327.941674 -152.744733 
L 324.588819 -154.80927 
L 321.085977 -156.873807 
L 317.508162 -158.938344 
L 313.941267 -161.002881 
L 310.476522 -163.067419 
L 307.204373 -165.131956 
L 304.208354 -167.196493 
L 301.559553 -169.26103 
L 299.312203 -171.325567 
L 297.500793 -173.390105 
L 296.138953 -175.454642 
L 295.220141 -177.519179 
L 294.719994 -179.583716 
L 294.6 -181.648253 
L 294.812048 -183.712791 
L 295.303311 -185.777328 
L 296.020948 -187.841865 
L 296.916142 -189.906402 
L 297.947115 -191.970939 
L 299.080922 -194.035477 
L 300.293966 -196.100014 
L 301.571345 -198.164551 
L 302.905273 -200.229088 
L 304.292879 -202.293625 
L 305.733766 -204.358163 
L 307.227652 -206.4227 
L 308.772415 -208.487237 
L 310.362731 -210.551774 
L 311.989453 -212.616311 
L 313.639727 -214.680849 
L 315.29779 -216.745386 
L 316.946298 -218.809923 
L 318.567997 -220.87446 
L 320.147518 -222.938997 
L 321.673064 -225.003535 
L 323.137801 -227.068072 
L 324.540784 -229.132609 
L 325.887307 -231.197146 
L 327.188638 -233.261683 
L 328.461152 -235.326221 
L 329.724955 -237.390758 
L 331.002143 -239.455295 
L 332.314853 -241.519832 
L 333.683329 -243.584369 
L 335.124169 -245.648907 
L 336.648921 -247.713444 
L 338.263139 -249.777981 
L 339.965966 -251.842518 
L 341.750226 -253.907055 
L 343.602993 -255.971593 
L 345.506521 -258.03613 
L 347.439445 -260.100667 
L 349.37811 -262.165204 
L 351.297916 -264.229741 
L 353.174598 -266.294279 
L 354.985344 -268.358816 
L 356.709732 -270.423353 
L 358.330433 -272.48789 
L 359.833705 -274.552427 
L 361.20965 -276.616965 
L 362.452284 -278.681502 
L 363.559412 -280.746039 
L 364.532354 -282.810576 
L 365.375532 -284.875113 
L 366.095976 -286.939651 
L 366.702747 -289.004188 
L 367.206355 -291.068725 
L 367.618166 -293.133262 
L 367.949864 -295.197799 
L 368.21297 -297.262337 
L 369.78703 -297.262337 
L 369.78703 -297.262337 
L 370.050136 -295.197799 
L 370.381834 -293.133262 
L 370.793645 -291.068725 
L 371.297253 -289.004188 
L 371.904024 -286.939651 
L 372.624468 -284.875113 
L 373.467646 -282.810576 
L 374.440588 -280.746039 
L 375.547716 -278.681502 
L 376.79035 -276.616965 
L 378.166295 -274.552427 
L 379.669567 -272.48789 
L 381.290268 -270.423353 
L 383.014656 -268.358816 
L 384.825402 -266.294279 
L 386.702084 -264.229741 
L 388.62189 -262.165204 
L 390.560555 -260.100667 
L 392.493479 -258.03613 
L 394.397007 -255.971593 
L 396.249774 -253.907055 
L 398.034034 -251.842518 
L 399.736861 -249.777981 
L 401.351079 -247.713444 
L 402.875831 -245.648907 
L 404.316671 -243.584369 
L 405.685147 -241.519832 
L 406.997857 -239.455295 
L 408.275045 -237.390758 
L 409.538848 -235.326221 
L 410.811362 -233.261683 
L 412.112693 -231.197146 
L 413.459216 -229.132609 
L 414.862199 -227.068072 
L 416.326936 -225.003535 
L 417.852482 -222.938997 
L 419.432003 -220.87446 
L 421.053702 -218.809923 
L 422.70221 -216.745386 
L 424.360273 -214.680849 
L 426.010547 -212.616311 
L 427.637269 -210.551774 
L 429.227585 -208.487237 
L 430.772348 -206.4227 
L 432.266234 -204.358163 
L 433.707121 -202.293625 
L 435.094727 -200.229088 
L 436.428655 -198.164551 
L 437.706034 -196.100014 
L 438.919078 -194.035477 
L 440.052885 -191.970939 
L 441.083858 -189.906402 
L 441.979052 -187.841865 
L 442.696689 -185.777328 
L 443.187952 -183.712791 
L 443.4 -181.648253 
L 443.280006 -179.583716 
L 442.779859 -177.519179 
L 441.861047 -175.454642 
L 440.499207 -173.390105 
L 438.687797 -171.325567 
L 436.440447 -169.26103 
L 433.791646 -167.196493 
L 430.795627 -165.131956 
L 427.523478 -163.067419 
L 424.058733 -161.002881 
L 420.491838 -158.938344 
L 416.914023 -156.873807 
L 413.411181 -154.80927 
L 410.058326 -152.744733 
L 406.915131 -150.680195 
L 404.022951 -148.615658 
L 401.403513 -146.551121 
L 399.059332 -144.486584 
L 396.975694 -142.422046 
L 395.123925 -140.357509 
L 393.46553 -138.292972 
L 391.956757 -136.228435 
L 390.553116 -134.163898 
L 389.213431 -132.09936 
L 387.903107 -130.034823 
L 386.596371 -127.970286 
L 385.277417 -125.905749 
L 383.94046 -123.841212 
L 382.588848 -121.776674 
L 381.233431 -119.712137 
L 379.890455 -117.6476 
L 378.579245 -115.583063 
L 377.319942 -113.518526 
L 376.131493 -111.453988 
L 375.030056 -109.389451 
L 374.0279 -107.324914 
L 373.132834 -105.260377 
L 372.348103 -103.19584 
L 371.6727 -101.131302 
L 371.101975 -99.066765 
L 370.628421 -97.002228 
L 370.242548 -94.937691 
L 369.933724 -92.873154 
z
" style="stroke: #484848; stroke-width: 1.25"/>
    </defs>
    <g clip-path="url(#pae5f3a1c46)">
     <use xlink:href="#m01e7ab3990" x="0" y="432" style="fill: #477ca8; stroke: #484848; stroke-width: 1.25"/>
    </g>
   </g>
   <g id="PolyCollection_3">
    <defs>
     <path id="mb9326ececd" d="M 555.435198 -85.522147 
L 554.564802 -85.522147 
L 554.424733 -88.345559 
L 554.255233 -91.168972 
L 554.055585 -93.992385 
L 553.826911 -96.815797 
L 553.572508 -99.63921 
L 553.297985 -102.462623 
L 553.011135 -105.286035 
L 552.721476 -108.109448 
L 552.43945 -110.932861 
L 552.1753 -113.756273 
L 551.937717 -116.579686 
L 551.732366 -119.403098 
L 551.560462 -122.226511 
L 551.417567 -125.049924 
L 551.292772 -127.873336 
L 551.168392 -130.696749 
L 551.020272 -133.520162 
L 550.818706 -136.343574 
L 550.529943 -139.166987 
L 550.118162 -141.9904 
L 549.547773 -144.813812 
L 548.785834 -147.637225 
L 547.804373 -150.460638 
L 546.582391 -153.28405 
L 545.107335 -156.107463 
L 543.375857 -158.930876 
L 541.393762 -161.754288 
L 539.175091 -164.577701 
L 536.740427 -167.401114 
L 534.114593 -170.224526 
L 531.324041 -173.047939 
L 528.394315 -175.871352 
L 525.347973 -178.694764 
L 522.203389 -181.518177 
L 518.974695 -184.34159 
L 515.673006 -187.165002 
L 512.308831 -189.988415 
L 508.895358 -192.811828 
L 505.452091 -195.63524 
L 502.008198 -198.458653 
L 498.604885 -201.282066 
L 495.296223 -204.105478 
L 492.148058 -206.928891 
L 489.234924 -209.752304 
L 486.635233 -212.575716 
L 484.425305 -215.399129 
L 482.673009 -218.222542 
L 481.431892 -221.045954 
L 480.736573 -223.869367 
L 480.6 -226.69278 
L 481.012822 -229.516192 
L 481.944839 -232.339605 
L 483.348155 -235.163018 
L 485.161454 -237.98643 
L 487.314777 -240.809843 
L 489.734161 -243.633256 
L 492.345701 -246.456668 
L 495.078766 -249.280081 
L 497.868302 -252.103494 
L 500.656294 -254.926906 
L 503.392569 -257.750319 
L 506.035111 -260.573732 
L 508.550035 -263.397144 
L 510.911321 -266.220557 
L 513.100378 -269.04397 
L 515.105473 -271.867382 
L 516.9211 -274.690795 
L 518.54738 -277.514208 
L 519.989603 -280.33762 
L 521.257983 -283.161033 
L 522.367678 -285.984445 
L 523.338984 -288.807858 
L 524.197557 -291.631271 
L 524.974403 -294.454683 
L 525.705377 -297.278096 
L 526.429967 -300.101509 
L 527.189274 -302.924921 
L 528.023253 -305.748334 
L 528.967482 -308.571747 
L 530.049844 -311.395159 
L 531.287621 -314.218572 
L 532.685445 -317.041985 
L 534.234468 -319.865397 
L 535.912918 -322.68881 
L 537.688 -325.512223 
L 539.518895 -328.335635 
L 541.360451 -331.159048 
L 543.167103 -333.982461 
L 544.89652 -336.805873 
L 546.512611 -339.629286 
L 547.987596 -342.452699 
L 549.30306 -345.276111 
L 550.450008 -348.099524 
L 551.428077 -350.922937 
L 552.24415 -353.746349 
L 552.910611 -356.569762 
L 553.443509 -359.393175 
L 553.860815 -362.216587 
L 554.18093 -365.04 
L 555.81907 -365.04 
L 555.81907 -365.04 
L 556.139185 -362.216587 
L 556.556491 -359.393175 
L 557.089389 -356.569762 
L 557.75585 -353.746349 
L 558.571923 -350.922937 
L 559.549992 -348.099524 
L 560.69694 -345.276111 
L 562.012404 -342.452699 
L 563.487389 -339.629286 
L 565.10348 -336.805873 
L 566.832897 -333.982461 
L 568.639549 -331.159048 
L 570.481105 -328.335635 
L 572.312 -325.512223 
L 574.087082 -322.68881 
L 575.765532 -319.865397 
L 577.314555 -317.041985 
L 578.712379 -314.218572 
L 579.950156 -311.395159 
L 581.032518 -308.571747 
L 581.976747 -305.748334 
L 582.810726 -302.924921 
L 583.570033 -300.101509 
L 584.294623 -297.278096 
L 585.025597 -294.454683 
L 585.802443 -291.631271 
L 586.661016 -288.807858 
L 587.632322 -285.984445 
L 588.742017 -283.161033 
L 590.010397 -280.33762 
L 591.45262 -277.514208 
L 593.0789 -274.690795 
L 594.894527 -271.867382 
L 596.899622 -269.04397 
L 599.088679 -266.220557 
L 601.449965 -263.397144 
L 603.964889 -260.573732 
L 606.607431 -257.750319 
L 609.343706 -254.926906 
L 612.131698 -252.103494 
L 614.921234 -249.280081 
L 617.654299 -246.456668 
L 620.265839 -243.633256 
L 622.685223 -240.809843 
L 624.838546 -237.98643 
L 626.651845 -235.163018 
L 628.055161 -232.339605 
L 628.987178 -229.516192 
L 629.4 -226.69278 
L 629.263427 -223.869367 
L 628.568108 -221.045954 
L 627.326991 -218.222542 
L 625.574695 -215.399129 
L 623.364767 -212.575716 
L 620.765076 -209.752304 
L 617.851942 -206.928891 
L 614.703777 -204.105478 
L 611.395115 -201.282066 
L 607.991802 -198.458653 
L 604.547909 -195.63524 
L 601.104642 -192.811828 
L 597.691169 -189.988415 
L 594.326994 -187.165002 
L 591.025305 -184.34159 
L 587.796611 -181.518177 
L 584.652027 -178.694764 
L 581.605685 -175.871352 
L 578.675959 -173.047939 
L 575.885407 -170.224526 
L 573.259573 -167.401114 
L 570.824909 -164.577701 
L 568.606238 -161.754288 
L 566.624143 -158.930876 
L 564.892665 -156.107463 
L 563.417609 -153.28405 
L 562.195627 -150.460638 
L 561.214166 -147.637225 
L 560.452227 -144.813812 
L 559.881838 -141.9904 
L 559.470057 -139.166987 
L 559.181294 -136.343574 
L 558.979728 -133.520162 
L 558.831608 -130.696749 
L 558.707228 -127.873336 
L 558.582433 -125.049924 
L 558.439538 -122.226511 
L 558.267634 -119.403098 
L 558.062283 -116.579686 
L 557.8247 -113.756273 
L 557.56055 -110.932861 
L 557.278524 -108.109448 
L 556.988865 -105.286035 
L 556.702015 -102.462623 
L 556.427492 -99.63921 
L 556.173089 -96.815797 
L 555.944415 -93.992385 
L 555.744767 -91.168972 
L 555.575267 -88.345559 
L 555.435198 -85.522147 
z
" style="stroke: #484848; stroke-width: 1.25"/>
    </defs>
    <g clip-path="url(#pae5f3a1c46)">
     <use xlink:href="#mb9326ececd" x="0" y="432" style="fill: #59a257; stroke: #484848; stroke-width: 1.25"/>
    </g>
   </g>
   <g id="matplotlib.axis_1">
    <g id="xtick_1">
     <g id="line2d_1">
      <defs>
       <path id="m8610fab5e9" d="M 0 0 
L 0 3.5 
" style="stroke: #000000; stroke-width: 0.8"/>
      </defs>
      <g>
       <use xlink:href="#m8610fab5e9" x="183" y="384.48" style="stroke: #000000; stroke-width: 0.8"/>
      </g>
     </g>
     <g id="text_1">
      <!-- Setosa -->
      <g transform="translate(166.060937 399.078438) scale(0.1 -0.1)">
       <defs>
        <path id="DejaVuSans-53" d="M 3425 4513 
L 3425 3897 
Q 3066 4069 2747 4153 
Q 2428 4238 2131 4238 
Q 1616 4238 1336 4038 
Q 1056 3838 1056 3469 
Q 1056 3159 1242 3001 
Q 1428 2844 1947 2747 
L 2328 2669 
Q 3034 2534 3370 2195 
Q 3706 1856 3706 1288 
Q 3706 609 3251 259 
Q 2797 -91 1919 -91 
Q 1588 -91 1214 -16 
Q 841 59 441 206 
L 441 856 
Q 825 641 1194 531 
Q 1563 422 1919 422 
Q 2459 422 2753 634 
Q 3047 847 3047 1241 
Q 3047 1584 2836 1778 
Q 2625 1972 2144 2069 
L 1759 2144 
Q 1053 2284 737 2584 
Q 422 2884 422 3419 
Q 422 4038 858 4394 
Q 1294 4750 2059 4750 
Q 2388 4750 2728 4690 
Q 3069 4631 3425 4513 
z
" transform="scale(0.015625)"/>
        <path id="DejaVuSans-65" d="M 3597 1894 
L 3597 1613 
L 953 1613 
Q 991 1019 1311 708 
Q 1631 397 2203 397 
Q 2534 397 2845 478 
Q 3156 559 3463 722 
L 3463 178 
Q 3153 47 2828 -22 
Q 2503 -91 2169 -91 
Q 1331 -91 842 396 
Q 353 884 353 1716 
Q 353 2575 817 3079 
Q 1281 3584 2069 3584 
Q 2775 3584 3186 3129 
Q 3597 2675 3597 1894 
z
M 3022 2063 
Q 3016 2534 2758 2815 
Q 2500 3097 2075 3097 
Q 1594 3097 1305 2825 
Q 1016 2553 972 2059 
L 3022 2063 
z
" transform="scale(0.015625)"/>
        <path id="DejaVuSans-74" d="M 1172 4494 
L 1172 3500 
L 2356 3500 
L 2356 3053 
L 1172 3053 
L 1172 1153 
Q 1172 725 1289 603 
Q 1406 481 1766 481 
L 2356 481 
L 2356 0 
L 1766 0 
Q 1100 0 847 248 
Q 594 497 594 1153 
L 594 3053 
L 172 3053 
L 172 3500 
L 594 3500 
L 594 4494 
L 1172 4494 
z
" transform="scale(0.015625)"/>
        <path id="DejaVuSans-6f" d="M 1959 3097 
Q 1497 3097 1228 2736 
Q 959 2375 959 1747 
Q 959 1119 1226 758 
Q 1494 397 1959 397 
Q 2419 397 2687 759 
Q 2956 1122 2956 1747 
Q 2956 2369 2687 2733 
Q 2419 3097 1959 3097 
z
M 1959 3584 
Q 2709 3584 3137 3096 
Q 3566 2609 3566 1747 
Q 3566 888 3137 398 
Q 2709 -91 1959 -91 
Q 1206 -91 779 398 
Q 353 888 353 1747 
Q 353 2609 779 3096 
Q 1206 3584 1959 3584 
z
" transform="scale(0.015625)"/>
        <path id="DejaVuSans-73" d="M 2834 3397 
L 2834 2853 
Q 2591 2978 2328 3040 
Q 2066 3103 1784 3103 
Q 1356 3103 1142 2972 
Q 928 2841 928 2578 
Q 928 2378 1081 2264 
Q 1234 2150 1697 2047 
L 1894 2003 
Q 2506 1872 2764 1633 
Q 3022 1394 3022 966 
Q 3022 478 2636 193 
Q 2250 -91 1575 -91 
Q 1294 -91 989 -36 
Q 684 19 347 128 
L 347 722 
Q 666 556 975 473 
Q 1284 391 1588 391 
Q 1994 391 2212 530 
Q 2431 669 2431 922 
Q 2431 1156 2273 1281 
Q 2116 1406 1581 1522 
L 1381 1569 
Q 847 1681 609 1914 
Q 372 2147 372 2553 
Q 372 3047 722 3315 
Q 1072 3584 1716 3584 
Q 2034 3584 2315 3537 
Q 2597 3491 2834 3397 
z
" transform="scale(0.015625)"/>
        <path id="DejaVuSans-61" d="M 2194 1759 
Q 1497 1759 1228 1600 
Q 959 1441 959 1056 
Q 959 750 1161 570 
Q 1363 391 1709 391 
Q 2188 391 2477 730 
Q 2766 1069 2766 1631 
L 2766 1759 
L 2194 1759 
z
M 3341 1997 
L 3341 0 
L 2766 0 
L 2766 531 
Q 2569 213 2275 61 
Q 1981 -91 1556 -91 
Q 1019 -91 701 211 
Q 384 513 384 1019 
Q 384 1609 779 1909 
Q 1175 2209 1959 2209 
L 2766 2209 
L 2766 2266 
Q 2766 2663 2505 2880 
Q 2244 3097 1772 3097 
Q 1472 3097 1187 3025 
Q 903 2953 641 2809 
L 641 3341 
Q 956 3463 1253 3523 
Q 1550 3584 1831 3584 
Q 2591 3584 2966 3190 
Q 3341 2797 3341 1997 
z
" transform="scale(0.015625)"/>
       </defs>
       <use xlink:href="#DejaVuSans-53"/>
       <use xlink:href="#DejaVuSans-65" x="63.476562"/>
       <use xlink:href="#DejaVuSans-74" x="125"/>
       <use xlink:href="#DejaVuSans-6f" x="164.208984"/>
       <use xlink:href="#DejaVuSans-73" x="225.390625"/>
       <use xlink:href="#DejaVuSans-61" x="277.490234"/>
      </g>
     </g>
    </g>
    <g id="xtick_2">
     <g id="line2d_2">
      <g>
       <use xlink:href="#m8610fab5e9" x="369" y="384.48" style="stroke: #000000; stroke-width: 0.8"/>
      </g>
     </g>
     <g id="text_2">
      <!-- Versicolor -->
      <g transform="translate(344.528906 399.078438) scale(0.1 -0.1)">
       <defs>
        <path id="DejaVuSans-56" d="M 1831 0 
L 50 4666 
L 709 4666 
L 2188 738 
L 3669 4666 
L 4325 4666 
L 2547 0 
L 1831 0 
z
" transform="scale(0.015625)"/>
        <path id="DejaVuSans-72" d="M 2631 2963 
Q 2534 3019 2420 3045 
Q 2306 3072 2169 3072 
Q 1681 3072 1420 2755 
Q 1159 2438 1159 1844 
L 1159 0 
L 581 0 
L 581 3500 
L 1159 3500 
L 1159 2956 
Q 1341 3275 1631 3429 
Q 1922 3584 2338 3584 
Q 2397 3584 2469 3576 
Q 2541 3569 2628 3553 
L 2631 2963 
z
" transform="scale(0.015625)"/>
        <path id="DejaVuSans-69" d="M 603 3500 
L 1178 3500 
L 1178 0 
L 603 0 
L 603 3500 
z
M 603 4863 
L 1178 4863 
L 1178 4134 
L 603 4134 
L 603 4863 
z
" transform="scale(0.015625)"/>
        <path id="DejaVuSans-63" d="M 3122 3366 
L 3122 2828 
Q 2878 2963 2633 3030 
Q 2388 3097 2138 3097 
Q 1578 3097 1268 2742 
Q 959 2388 959 1747 
Q 959 1106 1268 751 
Q 1578 397 2138 397 
Q 2388 397 2633 464 
Q 2878 531 3122 666 
L 3122 134 
Q 2881 22 2623 -34 
Q 2366 -91 2075 -91 
Q 1284 -91 818 406 
Q 353 903 353 1747 
Q 353 2603 823 3093 
Q 1294 3584 2113 3584 
Q 2378 3584 2631 3529 
Q 2884 3475 3122 3366 
z
" transform="scale(0.015625)"/>
        <path id="DejaVuSans-6c" d="M 603 4863 
L 1178 4863 
L 1178 0 
L 603 0 
L 603 4863 
z
" transform="scale(0.015625)"/>
       </defs>
       <use xlink:href="#DejaVuSans-56"/>
       <use xlink:href="#DejaVuSans-65" x="60.658203"/>
       <use xlink:href="#DejaVuSans-72" x="122.181641"/>
       <use xlink:href="#DejaVuSans-73" x="163.294922"/>
       <use xlink:href="#DejaVuSans-69" x="215.394531"/>
       <use xlink:href="#DejaVuSans-63" x="243.177734"/>
       <use xlink:href="#DejaVuSans-6f" x="298.158203"/>
       <use xlink:href="#DejaVuSans-6c" x="359.339844"/>
       <use xlink:href="#DejaVuSans-6f" x="387.123047"/>
       <use xlink:href="#DejaVuSans-72" x="448.304688"/>
      </g>
     </g>
    </g>
    <g id="xtick_3">
     <g id="line2d_3">
      <g>
       <use xlink:href="#m8610fab5e9" x="555" y="384.48" style="stroke: #000000; stroke-width: 0.8"/>
      </g>
     </g>
     <g id="text_3">
      <!-- Virginica -->
      <g transform="translate(533.400781 399.078438) scale(0.1 -0.1)">
       <defs>
        <path id="DejaVuSans-67" d="M 2906 1791 
Q 2906 2416 2648 2759 
Q 2391 3103 1925 3103 
Q 1463 3103 1205 2759 
Q 947 2416 947 1791 
Q 947 1169 1205 825 
Q 1463 481 1925 481 
Q 2391 481 2648 825 
Q 2906 1169 2906 1791 
z
M 3481 434 
Q 3481 -459 3084 -895 
Q 2688 -1331 1869 -1331 
Q 1566 -1331 1297 -1286 
Q 1028 -1241 775 -1147 
L 775 -588 
Q 1028 -725 1275 -790 
Q 1522 -856 1778 -856 
Q 2344 -856 2625 -561 
Q 2906 -266 2906 331 
L 2906 616 
Q 2728 306 2450 153 
Q 2172 0 1784 0 
Q 1141 0 747 490 
Q 353 981 353 1791 
Q 353 2603 747 3093 
Q 1141 3584 1784 3584 
Q 2172 3584 2450 3431 
Q 2728 3278 2906 2969 
L 2906 3500 
L 3481 3500 
L 3481 434 
z
" transform="scale(0.015625)"/>
        <path id="DejaVuSans-6e" d="M 3513 2113 
L 3513 0 
L 2938 0 
L 2938 2094 
Q 2938 2591 2744 2837 
Q 2550 3084 2163 3084 
Q 1697 3084 1428 2787 
Q 1159 2491 1159 1978 
L 1159 0 
L 581 0 
L 581 3500 
L 1159 3500 
L 1159 2956 
Q 1366 3272 1645 3428 
Q 1925 3584 2291 3584 
Q 2894 3584 3203 3211 
Q 3513 2838 3513 2113 
z
" transform="scale(0.015625)"/>
       </defs>
       <use xlink:href="#DejaVuSans-56"/>
       <use xlink:href="#DejaVuSans-69" x="66.158203"/>
       <use xlink:href="#DejaVuSans-72" x="93.941406"/>
       <use xlink:href="#DejaVuSans-67" x="133.304688"/>
       <use xlink:href="#DejaVuSans-69" x="196.78125"/>
       <use xlink:href="#DejaVuSans-6e" x="224.564453"/>
       <use xlink:href="#DejaVuSans-69" x="287.943359"/>
       <use xlink:href="#DejaVuSans-63" x="315.726562"/>
       <use xlink:href="#DejaVuSans-61" x="370.707031"/>
      </g>
     </g>
    </g>
    <g id="text_4">
     <!-- Flower Variety -->
     <g transform="translate(333.328125 412.756563) scale(0.1 -0.1)">
      <defs>
       <path id="DejaVuSans-46" d="M 628 4666 
L 3309 4666 
L 3309 4134 
L 1259 4134 
L 1259 2759 
L 3109 2759 
L 3109 2228 
L 1259 2228 
L 1259 0 
L 628 0 
L 628 4666 
z
" transform="scale(0.015625)"/>
       <path id="DejaVuSans-77" d="M 269 3500 
L 844 3500 
L 1563 769 
L 2278 3500 
L 2956 3500 
L 3675 769 
L 4391 3500 
L 4966 3500 
L 4050 0 
L 3372 0 
L 2619 2869 
L 1863 0 
L 1184 0 
L 269 3500 
z
" transform="scale(0.015625)"/>
       <path id="DejaVuSans-20" transform="scale(0.015625)"/>
       <path id="DejaVuSans-79" d="M 2059 -325 
Q 1816 -950 1584 -1140 
Q 1353 -1331 966 -1331 
L 506 -1331 
L 506 -850 
L 844 -850 
Q 1081 -850 1212 -737 
Q 1344 -625 1503 -206 
L 1606 56 
L 191 3500 
L 800 3500 
L 1894 763 
L 2988 3500 
L 3597 3500 
L 2059 -325 
z
" transform="scale(0.015625)"/>
      </defs>
      <use xlink:href="#DejaVuSans-46"/>
      <use xlink:href="#DejaVuSans-6c" x="57.519531"/>
      <use xlink:href="#DejaVuSans-6f" x="85.302734"/>
      <use xlink:href="#DejaVuSans-77" x="146.484375"/>
      <use xlink:href="#DejaVuSans-65" x="228.271484"/>
      <use xlink:href="#DejaVuSans-72" x="289.794922"/>
      <use xlink:href="#DejaVuSans-20" x="330.908203"/>
      <use xlink:href="#DejaVuSans-56" x="362.695312"/>
      <use xlink:href="#DejaVuSans-61" x="423.353516"/>
      <use xlink:href="#DejaVuSans-72" x="484.632812"/>
      <use xlink:href="#DejaVuSans-69" x="525.746094"/>
      <use xlink:href="#DejaVuSans-65" x="553.529297"/>
      <use xlink:href="#DejaVuSans-74" x="615.052734"/>
      <use xlink:href="#DejaVuSans-79" x="654.261719"/>
     </g>
    </g>
   </g>
   <g id="matplotlib.axis_2">
    <g id="ytick_1">
     <g id="line2d_4">
      <defs>
       <path id="m2da4ee3b48" d="M 0 0 
L -3.5 0 
" style="stroke: #000000; stroke-width: 0.8"/>
      </defs>
      <g>
       <use xlink:href="#m2da4ee3b48" x="90" y="367.856677" style="stroke: #000000; stroke-width: 0.8"/>
      </g>
     </g>
     <g id="text_5">
      <!-- 4 -->
      <g transform="translate(76.6375 371.655896) scale(0.1 -0.1)">
       <defs>
        <path id="DejaVuSans-34" d="M 2419 4116 
L 825 1625 
L 2419 1625 
L 2419 4116 
z
M 2253 4666 
L 3047 4666 
L 3047 1625 
L 3713 1625 
L 3713 1100 
L 3047 1100 
L 3047 0 
L 2419 0 
L 2419 1100 
L 313 1100 
L 313 1709 
L 2253 4666 
z
" transform="scale(0.015625)"/>
       </defs>
       <use xlink:href="#DejaVuSans-34"/>
      </g>
     </g>
    </g>
    <g id="ytick_2">
     <g id="line2d_5">
      <g>
       <use xlink:href="#m2da4ee3b48" x="90" y="300.715948" style="stroke: #000000; stroke-width: 0.8"/>
      </g>
     </g>
     <g id="text_6">
      <!-- 5 -->
      <g transform="translate(76.6375 304.515166) scale(0.1 -0.1)">
       <defs>
        <path id="DejaVuSans-35" d="M 691 4666 
L 3169 4666 
L 3169 4134 
L 1269 4134 
L 1269 2991 
Q 1406 3038 1543 3061 
Q 1681 3084 1819 3084 
Q 2600 3084 3056 2656 
Q 3513 2228 3513 1497 
Q 3513 744 3044 326 
Q 2575 -91 1722 -91 
Q 1428 -91 1123 -41 
Q 819 9 494 109 
L 494 744 
Q 775 591 1075 516 
Q 1375 441 1709 441 
Q 2250 441 2565 725 
Q 2881 1009 2881 1497 
Q 2881 1984 2565 2268 
Q 2250 2553 1709 2553 
Q 1456 2553 1204 2497 
Q 953 2441 691 2322 
L 691 4666 
z
" transform="scale(0.015625)"/>
       </defs>
       <use xlink:href="#DejaVuSans-35"/>
      </g>
     </g>
    </g>
    <g id="ytick_3">
     <g id="line2d_6">
      <g>
       <use xlink:href="#m2da4ee3b48" x="90" y="233.575218" style="stroke: #000000; stroke-width: 0.8"/>
      </g>
     </g>
     <g id="text_7">
      <!-- 6 -->
      <g transform="translate(76.6375 237.374437) scale(0.1 -0.1)">
       <defs>
        <path id="DejaVuSans-36" d="M 2113 2584 
Q 1688 2584 1439 2293 
Q 1191 2003 1191 1497 
Q 1191 994 1439 701 
Q 1688 409 2113 409 
Q 2538 409 2786 701 
Q 3034 994 3034 1497 
Q 3034 2003 2786 2293 
Q 2538 2584 2113 2584 
z
M 3366 4563 
L 3366 3988 
Q 3128 4100 2886 4159 
Q 2644 4219 2406 4219 
Q 1781 4219 1451 3797 
Q 1122 3375 1075 2522 
Q 1259 2794 1537 2939 
Q 1816 3084 2150 3084 
Q 2853 3084 3261 2657 
Q 3669 2231 3669 1497 
Q 3669 778 3244 343 
Q 2819 -91 2113 -91 
Q 1303 -91 875 529 
Q 447 1150 447 2328 
Q 447 3434 972 4092 
Q 1497 4750 2381 4750 
Q 2619 4750 2861 4703 
Q 3103 4656 3366 4563 
z
" transform="scale(0.015625)"/>
       </defs>
       <use xlink:href="#DejaVuSans-36"/>
      </g>
     </g>
    </g>
    <g id="ytick_4">
     <g id="line2d_7">
      <g>
       <use xlink:href="#m2da4ee3b48" x="90" y="166.434489" style="stroke: #000000; stroke-width: 0.8"/>
      </g>
     </g>
     <g id="text_8">
      <!-- 7 -->
      <g transform="translate(76.6375 170.233708) scale(0.1 -0.1)">
       <defs>
        <path id="DejaVuSans-37" d="M 525 4666 
L 3525 4666 
L 3525 4397 
L 1831 0 
L 1172 0 
L 2766 4134 
L 525 4134 
L 525 4666 
z
" transform="scale(0.015625)"/>
       </defs>
       <use xlink:href="#DejaVuSans-37"/>
      </g>
     </g>
    </g>
    <g id="ytick_5">
     <g id="line2d_8">
      <g>
       <use xlink:href="#m2da4ee3b48" x="90" y="99.29376" style="stroke: #000000; stroke-width: 0.8"/>
      </g>
     </g>
     <g id="text_9">
      <!-- 8 -->
      <g transform="translate(76.6375 103.092979) scale(0.1 -0.1)">
       <defs>
        <path id="DejaVuSans-38" d="M 2034 2216 
Q 1584 2216 1326 1975 
Q 1069 1734 1069 1313 
Q 1069 891 1326 650 
Q 1584 409 2034 409 
Q 2484 409 2743 651 
Q 3003 894 3003 1313 
Q 3003 1734 2745 1975 
Q 2488 2216 2034 2216 
z
M 1403 2484 
Q 997 2584 770 2862 
Q 544 3141 544 3541 
Q 544 4100 942 4425 
Q 1341 4750 2034 4750 
Q 2731 4750 3128 4425 
Q 3525 4100 3525 3541 
Q 3525 3141 3298 2862 
Q 3072 2584 2669 2484 
Q 3125 2378 3379 2068 
Q 3634 1759 3634 1313 
Q 3634 634 3220 271 
Q 2806 -91 2034 -91 
Q 1263 -91 848 271 
Q 434 634 434 1313 
Q 434 1759 690 2068 
Q 947 2378 1403 2484 
z
M 1172 3481 
Q 1172 3119 1398 2916 
Q 1625 2713 2034 2713 
Q 2441 2713 2670 2916 
Q 2900 3119 2900 3481 
Q 2900 3844 2670 4047 
Q 2441 4250 2034 4250 
Q 1625 4250 1398 4047 
Q 1172 3844 1172 3481 
z
" transform="scale(0.015625)"/>
       </defs>
       <use xlink:href="#DejaVuSans-38"/>
      </g>
     </g>
    </g>
    <g id="text_10">
     <!-- Sepal Length -->
     <g transform="translate(70.557812 250.874062) rotate(-90) scale(0.1 -0.1)">
      <defs>
       <path id="DejaVuSans-70" d="M 1159 525 
L 1159 -1331 
L 581 -1331 
L 581 3500 
L 1159 3500 
L 1159 2969 
Q 1341 3281 1617 3432 
Q 1894 3584 2278 3584 
Q 2916 3584 3314 3078 
Q 3713 2572 3713 1747 
Q 3713 922 3314 415 
Q 2916 -91 2278 -91 
Q 1894 -91 1617 61 
Q 1341 213 1159 525 
z
M 3116 1747 
Q 3116 2381 2855 2742 
Q 2594 3103 2138 3103 
Q 1681 3103 1420 2742 
Q 1159 2381 1159 1747 
Q 1159 1113 1420 752 
Q 1681 391 2138 391 
Q 2594 391 2855 752 
Q 3116 1113 3116 1747 
z
" transform="scale(0.015625)"/>
       <path id="DejaVuSans-4c" d="M 628 4666 
L 1259 4666 
L 1259 531 
L 3531 531 
L 3531 0 
L 628 0 
L 628 4666 
z
" transform="scale(0.015625)"/>
       <path id="DejaVuSans-68" d="M 3513 2113 
L 3513 0 
L 2938 0 
L 2938 2094 
Q 2938 2591 2744 2837 
Q 2550 3084 2163 3084 
Q 1697 3084 1428 2787 
Q 1159 2491 1159 1978 
L 1159 0 
L 581 0 
L 581 4863 
L 1159 4863 
L 1159 2956 
Q 1366 3272 1645 3428 
Q 1925 3584 2291 3584 
Q 2894 3584 3203 3211 
Q 3513 2838 3513 2113 
z
" transform="scale(0.015625)"/>
      </defs>
      <use xlink:href="#DejaVuSans-53"/>
      <use xlink:href="#DejaVuSans-65" x="63.476562"/>
      <use xlink:href="#DejaVuSans-70" x="125"/>
      <use xlink:href="#DejaVuSans-61" x="188.476562"/>
      <use xlink:href="#DejaVuSans-6c" x="249.755859"/>
      <use xlink:href="#DejaVuSans-20" x="277.539062"/>
      <use xlink:href="#DejaVuSans-4c" x="309.326172"/>
      <use xlink:href="#DejaVuSans-65" x="363.289062"/>
      <use xlink:href="#DejaVuSans-6e" x="424.8125"/>
      <use xlink:href="#DejaVuSans-67" x="488.191406"/>
      <use xlink:href="#DejaVuSans-74" x="551.667969"/>
      <use xlink:href="#DejaVuSans-68" x="590.876953"/>
     </g>
    </g>
   </g>
   <g id="line2d_9">
    <path d="M 183 347.714458 
L 183 247.003364 
" clip-path="url(#pae5f3a1c46)" style="fill: none; stroke: #484848; stroke-width: 1.875; stroke-linecap: square"/>
   </g>
   <g id="line2d_10">
    <path d="M 183 314.144093 
L 183 287.287802 
" clip-path="url(#pae5f3a1c46)" style="fill: none; stroke: #484848; stroke-width: 5.625; stroke-linecap: square"/>
   </g>
   <g id="line2d_11">
    <path d="M 183 300.715948 
" clip-path="url(#pae5f3a1c46)" style="fill: none; stroke: #484848; stroke-width: 1.5; stroke-linecap: square"/>
    <defs>
     <path id="m8afcaa5a24" d="M 2.34375 0 
L -2.34375 -0 
" style="stroke: #ffffff; stroke-width: 1.125"/>
    </defs>
    <g clip-path="url(#pae5f3a1c46)">
     <use xlink:href="#m8afcaa5a24" x="183" y="300.715948" style="fill: #ffffff; stroke: #ffffff; stroke-width: 1.125"/>
    </g>
   </g>
   <g id="line2d_12">
    <path d="M 369 307.430021 
L 369 166.434489 
" clip-path="url(#pae5f3a1c46)" style="fill: none; stroke: #484848; stroke-width: 1.875; stroke-linecap: square"/>
   </g>
   <g id="line2d_13">
    <path d="M 369 260.43151 
L 369 213.433 
" clip-path="url(#pae5f3a1c46)" style="fill: none; stroke: #484848; stroke-width: 5.625; stroke-linecap: square"/>
   </g>
   <g id="line2d_14">
    <path d="M 369 240.289291 
" clip-path="url(#pae5f3a1c46)" style="fill: none; stroke: #484848; stroke-width: 1.5; stroke-linecap: square"/>
    <g clip-path="url(#pae5f3a1c46)">
     <use xlink:href="#m8afcaa5a24" x="369" y="240.289291" style="fill: #ffffff; stroke: #ffffff; stroke-width: 1.125"/>
    </g>
   </g>
   <g id="line2d_15">
    <path d="M 555 260.43151 
L 555 106.007833 
" clip-path="url(#pae5f3a1c46)" style="fill: none; stroke: #484848; stroke-width: 1.875; stroke-linecap: square"/>
   </g>
   <g id="line2d_16">
    <path d="M 555 218.468554 
L 555 173.148562 
" clip-path="url(#pae5f3a1c46)" style="fill: none; stroke: #484848; stroke-width: 5.625; stroke-linecap: square"/>
   </g>
   <g id="line2d_17">
    <path d="M 555 200.004854 
" clip-path="url(#pae5f3a1c46)" style="fill: none; stroke: #484848; stroke-width: 1.5; stroke-linecap: square"/>
    <g clip-path="url(#pae5f3a1c46)">
     <use xlink:href="#m8afcaa5a24" x="555" y="200.004854" style="fill: #ffffff; stroke: #ffffff; stroke-width: 1.125"/>
    </g>
   </g>
   <g id="patch_3">
    <path d="M 90 384.48 
L 90 51.84 
" style="fill: none; stroke: #000000; stroke-width: 0.8; stroke-linejoin: miter; stroke-linecap: square"/>
   </g>
   <g id="patch_4">
    <path d="M 648 384.48 
L 648 51.84 
" style="fill: none; stroke: #000000; stroke-width: 0.8; stroke-linejoin: miter; stroke-linecap: square"/>
   </g>
   <g id="patch_5">
    <path d="M 90 384.48 
L 648 384.48 
" style="fill: none; stroke: #000000; stroke-width: 0.8; stroke-linejoin: miter; stroke-linecap: square"/>
   </g>
   <g id="patch_6">
    <path d="M 90 51.84 
L 648 51.84 
" style="fill: none; stroke: #000000; stroke-width: 0.8; stroke-linejoin: miter; stroke-linecap: square"/>
   </g>
   <g id="text_11">
    <!-- Sepal Length Distribution by Variety -->
    <g transform="translate(260.614688 45.84) scale(0.12 -0.12)">
     <defs>
      <path id="DejaVuSans-44" d="M 1259 4147 
L 1259 519 
L 2022 519 
Q 2988 519 3436 956 
Q 3884 1394 3884 2338 
Q 3884 3275 3436 3711 
Q 2988 4147 2022 4147 
L 1259 4147 
z
M 628 4666 
L 1925 4666 
Q 3281 4666 3915 4102 
Q 4550 3538 4550 2338 
Q 4550 1131 3912 565 
Q 3275 0 1925 0 
L 628 0 
L 628 4666 
z
" transform="scale(0.015625)"/>
      <path id="DejaVuSans-62" d="M 3116 1747 
Q 3116 2381 2855 2742 
Q 2594 3103 2138 3103 
Q 1681 3103 1420 2742 
Q 1159 2381 1159 1747 
Q 1159 1113 1420 752 
Q 1681 391 2138 391 
Q 2594 391 2855 752 
Q 3116 1113 3116 1747 
z
M 1159 2969 
Q 1341 3281 1617 3432 
Q 1894 3584 2278 3584 
Q 2916 3584 3314 3078 
Q 3713 2572 3713 1747 
Q 3713 922 3314 415 
Q 2916 -91 2278 -91 
Q 1894 -91 1617 61 
Q 1341 213 1159 525 
L 1159 0 
L 581 0 
L 581 4863 
L 1159 4863 
L 1159 2969 
z
" transform="scale(0.015625)"/>
      <path id="DejaVuSans-75" d="M 544 1381 
L 544 3500 
L 1119 3500 
L 1119 1403 
Q 1119 906 1312 657 
Q 1506 409 1894 409 
Q 2359 409 2629 706 
Q 2900 1003 2900 1516 
L 2900 3500 
L 3475 3500 
L 3475 0 
L 2900 0 
L 2900 538 
Q 2691 219 2414 64 
Q 2138 -91 1772 -91 
Q 1169 -91 856 284 
Q 544 659 544 1381 
z
M 1991 3584 
L 1991 3584 
z
" transform="scale(0.015625)"/>
     </defs>
     <use xlink:href="#DejaVuSans-53"/>
     <use xlink:href="#DejaVuSans-65" x="63.476562"/>
     <use xlink:href="#DejaVuSans-70" x="125"/>
     <use xlink:href="#DejaVuSans-61" x="188.476562"/>
     <use xlink:href="#DejaVuSans-6c" x="249.755859"/>
     <use xlink:href="#DejaVuSans-20" x="277.539062"/>
     <use xlink:href="#DejaVuSans-4c" x="309.326172"/>
     <use xlink:href="#DejaVuSans-65" x="363.289062"/>
     <use xlink:href="#DejaVuSans-6e" x="424.8125"/>
     <use xlink:href="#DejaVuSans-67" x="488.191406"/>
     <use xlink:href="#DejaVuSans-74" x="551.667969"/>
     <use xlink:href="#DejaVuSans-68" x="590.876953"/>
     <use xlink:href="#DejaVuSans-20" x="654.255859"/>
     <use xlink:href="#DejaVuSans-44" x="686.042969"/>
     <use xlink:href="#DejaVuSans-69" x="763.044922"/>
     <use xlink:href="#DejaVuSans-73" x="790.828125"/>
     <use xlink:href="#DejaVuSans-74" x="842.927734"/>
     <use xlink:href="#DejaVuSans-72" x="882.136719"/>
     <use xlink:href="#DejaVuSans-69" x="923.25"/>
     <use xlink:href="#DejaVuSans-62" x="951.033203"/>
     <use xlink:href="#DejaVuSans-75" x="1014.509766"/>
     <use xlink:href="#DejaVuSans-74" x="1077.888672"/>
     <use xlink:href="#DejaVuSans-69" x="1117.097656"/>
     <use xlink:href="#DejaVuSans-6f" x="1144.880859"/>
     <use xlink:href="#DejaVuSans-6e" x="1206.0625"/>
     <use xlink:href="#DejaVuSans-20" x="1269.441406"/>
     <use xlink:href="#DejaVuSans-62" x="1301.228516"/>
     <use xlink:href="#DejaVuSans-79" x="1364.705078"/>
     <use xlink:href="#DejaVuSans-20" x="1423.884766"/>
     <use xlink:href="#DejaVuSans-56" x="1455.671875"/>
     <use xlink:href="#DejaVuSans-61" x="1516.330078"/>
     <use xlink:href="#DejaVuSans-72" x="1577.609375"/>
     <use xlink:href="#DejaVuSans-69" x="1618.722656"/>
     <use xlink:href="#DejaVuSans-65" x="1646.505859"/>
     <use xlink:href="#DejaVuSans-74" x="1708.029297"/>
     <use xlink:href="#DejaVuSans-79" x="1747.238281"/>
    </g>
   </g>
  </g>
 </g>
 <defs>
  <clipPath id="pae5f3a1c46">
   <rect x="90" y="51.84" width="558" height="332.64"/>
  </clipPath>
 </defs>
</svg>
